Coordinates
version=1
nRows=7
nColumns=63
inDegrees=yes

Units are S.I. units (second, meters, Newtons, ...)
If the header above contains a line with 'inDegrees', this indicates whether rotational values are in degrees (yes) or radians (no).

endheader
time	pelvis_tilt	pelvis_list	pelvis_rotation	pelvis_tx	pelvis_ty	pelvis_tz	hip_flexion_r	hip_adduction_r	hip_rotation_r	knee_angle_r	knee_angle_r_beta	ankle_angle_r	subtalar_angle_r	mtp_angle_r	hip_flexion_l	hip_adduction_l	hip_rotation_l	knee_angle_l	knee_angle_l_beta	ankle_angle_l	subtalar_angle_l	mtp_angle_l	L5_S1_Flex_Ext	L5_S1_Lat_Bending	L5_S1_axial_rotation	L4_L5_Flex_Ext	L4_L5_Lat_Bending	L4_L5_axial_rotation	L3_L4_Flex_Ext	L3_L4_Lat_Bending	L3_L4_axial_rotation	L2_L3_Flex_Ext	L2_L3_Lat_Bending	L2_L3_axial_rotation	L1_L2_Flex_Ext	L1_L2_Lat_Bending	L1_L2_axial_rotation	L1_T12_Flex_Ext	L1_T12_Lat_Bending	L1_T12_axial_rotation	Abs_r3	Abs_r2	Abs_r1	Abs_t1	Abs_t2	neck_flexion	neck_bending	neck_rotation	arm_flex_r	arm_add_r	arm_rot_r	elbow_flex_r	pro_sup_r	wrist_flex_r	wrist_dev_r	arm_flex_l	arm_add_l	arm_rot_l	elbow_flex_l	pro_sup_l	wrist_flex_l	wrist_dev_l
     16.29411765	     23.29165082	     -5.18045704	    108.65823535	     -0.02763010	      1.00668892	      0.43588366	     16.38147437	      9.87585342	    -10.05472200	     26.11573809	      0.45580562	      4.25375214	     14.78093705	      0.00000000	      7.78303614	    -17.80326157	    -17.74816133	     12.95454710	      0.22609950	     28.15350737	      1.33168016	      0.00000000	     -0.78339479	      3.32792100	     -1.58386736	     -1.45484246	      4.42613493	     -1.68285907	     -1.28703930	      8.09150712	     -1.68285907	     -0.89534190	      8.09150712	     -1.38588394	     -0.72746040	      6.78629650	     -1.28689223	     -0.44763178	      5.15494963	     -1.18790052	     -5.59571064	     37.64610794	     -8.80899508	      0.00000000	      0.00000000	    -23.84470914	     12.70028185	    -27.70052811	    137.06691274	   -139.19919677	    179.82886469	     63.91196850	     88.93283818	     14.10014440	     13.37936571	     12.95356965	      1.06095542	    155.26389223	      0.54653611	      1.79774641	     13.50291679	    -24.15126333
     16.31372549	     23.13123186	     -5.35492050	    108.62982889	     -0.02742396	      1.00699352	      0.43550079	     16.48806696	      9.68752622	    -10.21530882	     26.00067874	      0.45379745	      4.65542020	     14.85998441	      0.00000000	      7.64354062	    -17.55139542	    -17.40401182	     12.49414774	      0.21806402	     27.59874544	      0.98346397	      0.00000000	     -0.78915625	      3.32875008	     -1.49424493	     -1.46554207	      4.42723761	     -1.58763524	     -1.29650480	      8.09352294	     -1.58763524	     -0.90192667	      8.09352294	     -1.30746432	     -0.73281049	      6.78798716	     -1.21407401	     -0.45092388	      5.15623387	     -1.12068370	     -5.63686416	     37.65548665	     -8.31054204	      0.00000000	      0.00000000	    -22.88461864	     13.02197917	    -28.20106537	    135.98136269	   -138.28789391	    180.12057669	     65.54876706	     89.25640009	      9.53979087	     12.08430513	     13.64998147	      1.16494066	    158.07789784	      0.47512060	      1.78831967	     13.35582845	    -24.27465203
     16.33333333	     22.79368849	     -5.48764029	    108.67476625	     -0.02669063	      1.00721423	      0.43498965	     16.53397087	      9.32323054	    -10.54923716	     26.04865771	      0.45463484	      4.95257935	     14.89270423	      0.00000000	      7.33906594	    -17.13208246	    -16.83104749	     11.82089188	      0.20631348	     27.17550396	      1.11340556	      0.00000000	     -0.78244065	      3.29498560	     -1.49275230	     -1.45307053	      4.38233085	     -1.58604932	     -1.28547174	      8.01142799	     -1.58604932	     -0.89425142	      8.01142799	     -1.30615826	     -0.72657439	      6.71913464	     -1.21286125	     -0.44708659	      5.10393270	     -1.11956423	     -5.58889530	     37.27353611	     -8.30224048	      0.00000000	      0.00000000	    -21.92457783	     12.90829368	    -28.11785285	    135.61616695	   -137.20065029	    181.00734548	     66.61214329	     89.42408243	      5.56506941	     11.76329862	     14.21736251	      1.07561939	    160.10114011	      0.40609077	      1.83567680	     12.65019737	    -24.34340892
     16.35294118	     22.24629074	     -5.58572777	    108.48000013	     -0.02472004	      1.00729675	      0.43452262	     16.64074474	      8.83403950	    -10.73057398	     26.50519435	      0.46260291	      5.35428518	     14.94380338	      0.00000000	      7.03367544	    -16.64677554	    -16.26977910	     11.48322380	      0.20042006	     27.13050532	      1.48097842	      0.00000000	     -0.76311659	      3.20232708	     -1.53439560	     -1.41718382	      4.25909501	     -1.63029532	     -1.25372424	      7.78613805	     -1.63029532	     -0.87216595	      7.78613805	     -1.34259615	     -0.70863006	      6.53018537	     -1.24669642	     -0.43604482	      4.96040464	     -1.15079670	     -5.45086548	     36.22536435	     -8.53384799	      0.00000000	      0.00000000	    -21.10606766	     12.47414435	    -27.66164130	    136.63322669	   -135.92685324	    182.83173994	     66.71897945	     89.47749494	      2.90320990	     11.89502794	     14.63493349	      0.66527307	    160.74031834	      0.36251981	      1.86152313	     11.29836172	    -24.33563377
     16.37254902	     21.34573660	     -5.54710039	    108.26717342	     -0.02189522	      1.00707109	      0.43390427	     16.60827505	      8.05781700	    -10.94078772	     27.32312674	      0.47687852	      6.17727766	     14.91776381	      0.00000000	      6.48882469	    -15.90905377	    -15.87588585	     11.17059854	      0.19496372	     27.39083451	      2.20653762	      0.00000000	     -0.73677554	      3.03647817	     -1.63231618	     -1.36826586	      4.03851596	     -1.73433594	     -1.21044854	      7.38289301	     -1.73433594	     -0.84206077	      7.38289301	     -1.42827665	     -0.68416977	      6.19198628	     -1.32625689	     -0.42099355	      4.70350468	     -1.22423713	     -5.26271404	     34.34924831	     -9.07845288	      0.00000000	      0.00000000	    -20.68721968	     11.72784478	    -26.96283318	    138.64023975	   -135.30315528	    183.70947092	     66.86237710	     89.45567692	      2.49271321	     14.69180554	     14.93964798	     -0.09896061	    159.69948897	      0.34479622	      1.84355519	     10.31901651	    -24.19934068
     16.39215686	     20.33377148	     -5.57573328	    107.64863204	     -0.01755274	      1.00683052	      0.43282476	     16.62500458	      7.32968909	    -10.59154414	     28.24072443	      0.49289362	      6.91509516	     15.03015213	      0.00000000	      5.82854321	    -15.24934308	    -16.72426316	     10.92295811	      0.19064158	     28.04371794	      4.23517082	      0.00000000	     -0.70729978	      2.81865457	     -1.75366231	     -1.31352642	      3.74881057	     -1.86326620	     -1.16202281	      6.85327671	     -1.86326620	     -0.80837292	      6.85327671	     -1.53445452	     -0.65679858	      5.74780039	     -1.42485063	     -0.40415109	      4.36609592	     -1.31524673	     -5.05217159	     31.88518418	     -9.75334366	      0.00000000	      0.00000000	    -20.81334023	     10.55856764	    -25.61852860	    141.91017927	   -134.87494448	    183.74691420	     67.85749761	     89.35583530	      5.11242293	     19.60853392	     14.94742483	     -1.14189864	    157.10162859	      0.34798083	      1.98586989	      9.25055630	    -23.84198020
     16.41176471	     18.94128566	     -5.63599898	    106.82970165	     -0.01218347	      1.00676605	      0.43154407	     16.57983988	      6.33898153	     -9.92354192	     29.25911115	      0.51066783	      7.78750382	     14.88483803	      0.00000000	      4.96679686	    -14.15633183	    -17.27135037	     10.49515798	      0.18317506	     28.35927245	      5.29684649	      0.00000000	     -0.68598188	      2.52697127	     -1.84553041	     -1.27393694	      3.36087180	     -1.96087606	     -1.12699962	      6.14407796	     -1.96087606	     -0.78400869	      6.14407796	     -1.61483911	     -0.63700277	      5.15299982	     -1.49949345	     -0.39197004	      3.91427850	     -1.38414780	     -4.89989994	     28.58560445	    -10.26428646	      0.00000000	      0.00000000	    -21.25054149	      9.23147596	    -24.55745195	    145.67998988	   -135.06993963	    183.14591330	     70.08334456	     89.16902208	      6.39632726	     22.06395895	     15.00052974	     -2.35105863	    155.65456720	      0.34930178	      2.11011708	      7.03072297	    -22.94708043
